<?xml version="1.0" encoding="UTF-8"?>
<svg height="600" width="800" xmlns="http://www.w3.org/2000/svg" xmlns:xlink="http://www.w3.org/1999/xlink">
    <g id="Notes" font-family="'LucidaGrande', 'Lucida Grande', sans-serif" font-size="13">
        <rect fill="white" height="600.0" width="800.0" x="0.0" y="0.0" />
        <g font-size="13">
            <text x="18.0" y="176.0">Small</text>
            <text x="18.0" y="376.0">Medium</text>
            <text x="18.0" y="576.0">Large</text>
        </g>
        <g font-size="9">
            <text x="250.0" y="30.0">Ultralight</text>
            <text x="450.0" y="30.0">Regular</text>
            <text x="650.0" y="30.0">Black</text>
            <text id="template-version" fill="#505050" text-anchor="end" x="785.0" y="575.0">Template v.3.0</text>
            <a href="https://wangchujiang.com/#/app">
                <text fill="#505050" text-anchor="end" x="785.0" y="590.0">https://wangchujiang.com/#/app</text>
            </a>
        </g>
    </g>
    <g id="Guides" stroke="rgb(39, 170, 225)" stroke-width="0.5">
        <path id="Capline-S" d="M18,76 l800,0" />
        <path id="H-reference" d="M85,145.755 L87.685,145.755 L113.369,79.287 L114.052,79.287 L114.052,76 L112.148,76 L85,145.755 Z M95.693,121.536 L130.996,121.536 L130.263,119.313 L96.474,119.313 L95.693,121.536 Z M139.15,145.755 L141.787,145.755 L114.638,76 L113.466,76 L113.466,79.287 L139.15,145.755 Z" stroke="none" />
        <path id="Baseline-S" d="M18,146 l800,0" />
        <path id="left-margin-Ultralight-S" d="M221,56 l0,110" />
        <path id="right-margin-Ultralight-S" d="M309,56 l0,110" />
        <path id="left-margin-Regular-S" d="M421,56 l0,110" />
        <path id="right-margin-Regular-S" d="M509,56 l0,110" />
        <path id="left-margin-Black-S" d="M621,56 l0,110" />
        <path id="right-margin-Black-S" d="M709,56 l0,110" />
        <path id="Capline-M" d="M18,276 l800,0" />
        <path id="Baseline-M" d="M18,346 l800,0" />
        <path id="Capline-L" d="M18,476 l800,0" />
        <path id="Baseline-L" d="M18,546 l800,0" />
    </g>
    <g id="Symbols">
        <g id="Ultralight-S">
            <path d="M264.178,76 C257.577,76.028 251.253,77.093 246.612,79.112 C244.216,100.959 241.754,123.385 239.69,142.189 L257.964,145.866 L263.025,106.924 L266.082,106.924 L271.156,146 L271.188,146 L290.31,142.106 C287.982,121.111 285.713,100.108 283.387,79.112 C277.654,76.992 270.779,75.975 264.178,76 Z" />
        </g>
        <g id="Regular-S">
            <path d="M464.178,76 C457.577,76.028 451.253,77.093 446.612,79.112 C444.216,100.959 441.754,123.385 439.69,142.189 L457.964,145.866 L463.025,106.924 L466.082,106.924 L471.156,146 L471.188,146 L490.31,142.106 C487.982,121.111 485.713,100.108 483.387,79.112 C477.654,76.992 470.779,75.975 464.178,76 Z" />
        </g>
        <g id="Black-S">
            <path d="M664.178,76 C657.577,76.028 651.253,77.093 646.612,79.112 C644.216,100.959 641.754,123.385 639.69,142.189 L657.964,145.866 L663.025,106.924 L666.082,106.924 L671.156,146 L671.188,146 L690.31,142.106 C687.982,121.111 685.714,100.108 683.387,79.112 C677.654,76.992 670.779,75.975 664.178,76 Z" />
        </g>
    </g>
</svg>